<!DOCTYPE svg PUBLIC "-//W3C//DTD SVG 20010904//EN" "http://www.w3.org/TR/2001/REC-SVG-20010904/DTD/svg10.dtd">
<svg version="1.0" xmlns="http://www.w3.org/2000/svg" width="752px" height="452px" viewBox="0 0 7520 4520" preserveAspectRatio="xMidYMid meet">
<g id="layer101" fill="#857878" stroke="none">
<path d="M0 2260 l0 -2260 3760 0 3760 0 0 2260 0 2260 -3760 0 -3760 0 0 -2260z"/>
</g>
<g id="layer102" fill="#4472c4" stroke="none">
<path d="M0 2260 l0 -2260 3760 0 3760 0 0 2260 0 2260 -3760 0 -3760 0 0 -2260z m3329 1968 c-2 -24 -10 -49 -19 -55 -13 -11 -12 -16 13 -38 l28 -25 -38 1 c-32 1 -34 2 -13 8 l24 7 -22 15 c-20 14 -21 18 -7 29 23 19 18 28 -17 33 -32 4 -32 4 5 5 34 2 37 4 37 32 0 17 3 30 6 30 3 0 4 -19 3 -42z m141 17 c13 -14 21 -25 18 -25 -2 0 -15 11 -28 25 -13 14 -21 25 -18 25 2 0 15 -11 28 -25z m116 -61 l0 -79 -3 75 c-2 42 -9 78 -16 83 -8 6 -8 7 3 4 12 -3 15 -21 16 -83z m843 44 c-2 -24 -10 -49 -19 -55 -13 -11 -12 -16 13 -38 l28 -25 -38 1 c-32 1 -34 2 -13 8 l24 7 -22 15 c-20 14 -21 18 -7 29 23 19 18 28 -17 33 -32 4 -32 4 5 5 34 2 37 4 37 32 0 17 3 30 6 30 3 0 4 -19 3 -42z m141 17 c13 -14 21 -25 18 -25 -2 0 -15 11 -28 25 -13 14 -21 25 -18 25 2 0 15 -11 28 -25z m116 -61 l0 -79 -3 75 c-2 42 -9 78 -16 83 -8 6 -8 7 3 4 12 -3 15 -21 16 -83z m-1411 56 c10 -11 16 -20 13 -20 -3 0 -13 9 -23 20 -10 11 -16 20 -13 20 3 0 13 -9 23 -20z m125 17 c0 -2 -10 -12 -22 -23 l-23 -19 19 23 c18 21 26 27 26 19z m288 -4 c-14 -4 -18 -15 -18 -59 0 -55 -8 -66 -30 -39 -11 13 -10 14 4 9 13 -5 16 1 16 39 0 35 -4 47 -17 50 -10 3 0 5 22 5 22 0 32 -2 23 -5z m687 -13 c10 -11 16 -20 13 -20 -3 0 -13 9 -23 20 -10 11 -16 20 -13 20 3 0 13 -9 23 -20z m125 17 c0 -2 -10 -12 -22 -23 l-23 -19 19 23 c18 21 26 27 26 19z m272 -4 l-33 -4 26 -31 c31 -37 30 -72 -4 -76 -13 -2 -28 2 -35 8 -8 9 -4 10 16 5 43 -11 46 17 8 65 l-32 40 44 -2 c37 -1 38 -2 10 -5z m-1225 -100 c-2 -16 -4 -5 -4 22 0 28 2 40 4 28 2 -13 2 -35 0 -50z m1100 0 c-2 -16 -4 -5 -4 22 0 28 2 40 4 28 2 -13 2 -35 0 -50z m-1252 47 c-3 -5 -12 -10 -18 -10 -7 0 -6 4 3 10 19 12 23 12 15 0z m105 6 c0 -2 -7 -7 -16 -10 -8 -3 -12 -2 -9 4 6 10 25 14 25 6z m995 -6 c-3 -5 -12 -10 -18 -10 -7 0 -6 4 3 10 19 12 23 12 15 0z m105 6 c0 -2 -7 -7 -16 -10 -8 -3 -12 -2 -9 4 6 10 25 14 25 6z m-1090 -36 c0 -15 -6 -20 -27 -19 -24 2 -25 2 -5 6 12 2 22 11 22 19 0 8 2 14 5 14 3 0 5 -9 5 -20z m1100 0 c0 -15 -6 -20 -27 -19 -24 2 -25 2 -5 6 12 2 22 11 22 19 0 8 2 14 5 14 3 0 5 -9 5 -20z m-1255 -20 c3 -5 4 -10 1 -10 -3 0 -8 5 -11 10 -3 6 -4 10 -1 10 3 0 8 -4 11 -10z m1100 0 c3 -5 4 -10 1 -10 -3 0 -8 5 -11 10 -3 6 -4 10 -1 10 3 0 8 -4 11 -10z m-952 -27 c-13 -2 -33 -2 -45 0 -13 2 -3 4 22 4 25 0 35 -2 23 -4z m1100 0 c-13 -2 -33 -2 -45 0 -13 2 -3 4 22 4 25 0 35 -2 23 -4z m-1216 -19 c-3 -3 -12 -4 -19 -1 -8 3 -5 6 6 6 11 1 17 -2 13 -5z m1100 0 c-3 -3 -12 -4 -19 -1 -8 3 -5 6 6 6 11 1 17 -2 13 -5z m-3498 -276 c5 -13 16 -40 25 -60 l16 -38 -42 1 c-40 2 -41 2 -11 8 l32 6 -19 44 c-11 24 -20 47 -20 52 0 17 10 9 19 -13z m995 16 c18 -7 22 -39 6 -49 -8 -5 -8 -11 0 -20 15 -18 1 -45 -24 -45 -33 0 -47 19 -34 44 8 15 8 21 -1 24 -6 2 -11 12 -11 22 0 25 31 37 64 24z m970 -13 c22 -24 18 -80 -6 -95 -25 -15 -53 4 -53 35 0 19 6 25 28 27 38 5 32 35 -8 43 -29 6 -29 7 -4 8 14 0 34 -8 43 -18z m924 12 c-14 -4 -18 -15 -18 -59 0 -55 -8 -66 -30 -39 -11 13 -10 14 4 9 13 -5 16 1 16 39 0 35 -4 47 -17 50 -10 3 0 5 22 5 22 0 32 -2 23 -5z m101 -7 c17 -21 10 -87 -11 -100 -28 -17 -52 5 -56 48 -4 41 11 66 38 66 10 0 23 -6 29 -14z m859 7 c-14 -4 -18 -15 -18 -59 0 -55 -8 -66 -30 -39 -11 13 -10 14 4 9 13 -5 16 1 16 39 0 35 -4 47 -17 50 -10 3 0 5 22 5 22 0 32 -2 23 -5z m100 0 c-14 -4 -18 -15 -18 -59 0 -55 -8 -66 -30 -39 -11 13 -10 14 4 9 13 -5 16 1 16 39 0 35 -4 47 -17 50 -10 3 0 5 22 5 22 0 32 -2 23 -5z m870 0 c-14 -4 -18 -15 -18 -59 0 -55 -8 -66 -30 -39 -11 13 -10 14 4 9 13 -5 16 1 16 39 0 35 -4 47 -17 50 -10 3 0 5 22 5 22 0 32 -2 23 -5z m84 0 l-33 -4 26 -31 c31 -37 30 -72 -4 -76 -13 -2 -28 2 -35 8 -8 9 -5 10 15 5 39 -10 43 17 8 64 l-29 41 42 -2 c38 -1 39 -2 10 -5z m886 0 c-14 -4 -18 -15 -18 -59 0 -55 -8 -66 -30 -39 -11 13 -10 14 4 9 13 -5 16 1 16 39 0 35 -4 47 -17 50 -10 3 0 5 22 5 22 0 32 -2 23 -5z m106 -16 c9 -14 7 -21 -6 -31 -13 -9 -14 -16 -6 -24 17 -17 1 -42 -26 -42 -14 0 -27 4 -30 8 -2 4 8 8 22 7 35 0 36 27 2 36 l-25 6 25 4 c36 6 35 44 -2 44 -14 -1 -24 3 -21 8 9 14 55 3 67 -16z m-6565 -231 c17 -21 10 -87 -11 -100 -28 -17 -52 5 -56 48 -4 41 11 66 38 66 10 0 23 -6 29 -14z m2 -422 c16 -20 1 -48 -30 -52 -32 -5 -28 -40 7 -45 25 -4 25 -4 -5 -6 -30 -1 -33 2 -33 28 0 23 5 30 23 33 34 5 30 43 -5 43 -14 -1 -24 3 -22 7 9 14 51 9 65 -8z m-103 -401 c-14 -4 -18 -15 -18 -59 0 -55 -8 -66 -30 -39 -11 13 -10 14 4 9 13 -5 16 1 16 39 0 35 -4 47 -17 50 -10 3 0 5 22 5 22 0 32 -2 23 -5z m100 -5 c16 -16 16 -80 0 -96 -31 -31 -68 -1 -68 55 0 32 16 53 40 53 9 0 21 -5 28 -12z m-100 -405 c-14 -4 -18 -15 -18 -59 0 -55 -8 -66 -30 -39 -11 13 -10 14 4 9 13 -5 16 1 16 39 0 35 -4 47 -17 50 -10 3 0 5 22 5 22 0 32 -2 23 -5z m103 -9 c16 -20 1 -48 -30 -52 -32 -5 -28 -40 7 -45 25 -4 25 -4 -5 -6 -30 -1 -33 2 -33 28 0 23 5 30 23 33 34 5 30 43 -5 43 -14 -1 -24 3 -22 7 9 14 51 9 65 -8z m-119 -411 l-33 -4 26 -31 c31 -37 30 -72 -4 -76 -13 -2 -28 2 -35 8 -8 9 -5 10 15 5 39 -10 43 17 8 64 l-29 41 42 -2 c38 -1 39 -2 10 -5z m117 -7 c17 -21 10 -87 -11 -100 -28 -17 -52 5 -56 48 -4 41 11 66 38 66 10 0 23 -6 29 -14z m-117 -403 l-33 -4 26 -31 c31 -37 30 -72 -4 -76 -13 -2 -28 2 -35 8 -8 9 -4 10 16 5 43 -11 46 17 8 65 l-32 40 44 -2 c37 -1 38 -2 10 -5z m119 -9 c16 -20 1 -48 -30 -52 -32 -5 -28 -40 7 -45 25 -4 25 -4 -5 -6 -30 -1 -33 2 -33 28 0 23 5 30 23 33 34 5 30 43 -5 43 -14 -1 -24 3 -22 7 9 14 51 9 65 -8z m-97 -427 c9 -14 7 -21 -6 -31 -13 -9 -14 -16 -6 -24 17 -17 1 -42 -26 -42 -14 0 -27 4 -30 8 -2 4 8 8 22 7 35 0 36 27 2 36 l-25 6 25 4 c36 6 35 44 -2 44 -14 -1 -24 3 -21 8 9 14 55 3 67 -16z m94 11 c16 -16 16 -80 0 -96 -31 -31 -68 -1 -68 55 0 32 16 53 40 53 9 0 21 -5 28 -12z m-94 -421 c9 -14 7 -21 -6 -31 -13 -9 -14 -16 -6 -24 17 -17 1 -42 -26 -42 -14 0 -27 4 -30 8 -2 4 8 8 22 7 35 0 36 27 2 36 l-25 6 25 4 c36 6 35 44 -2 44 -14 -1 -24 3 -21 8 9 14 55 3 67 -16z m97 7 c16 -20 1 -48 -30 -52 -32 -5 -28 -40 7 -45 25 -4 25 -4 -5 -6 -30 -1 -33 2 -33 28 0 23 5 30 23 33 34 5 30 43 -5 43 -14 -1 -24 3 -22 7 9 14 51 9 65 -8z m-99 -411 c7 -36 -4 -103 -17 -103 -9 0 -12 11 -8 40 5 36 3 40 -16 40 -21 0 -21 -1 -5 -25 9 -14 14 -28 11 -31 -5 -5 -37 47 -37 61 0 3 11 5 25 5 16 0 25 6 25 15 0 20 18 19 22 -2z m96 5 c16 -16 16 -80 0 -96 -31 -31 -68 -1 -68 55 0 32 16 53 40 53 9 0 21 -5 28 -12z"/>
</g>
<g id="layer103" fill="#ed7d31" stroke="none">
<path d="M0 2260 l0 -2260 3760 0 3760 0 0 2260 0 2260 -3760 0 -3760 0 0 -2260z m3329 1968 c-2 -24 -10 -49 -19 -55 -13 -11 -12 -16 13 -38 l28 -25 -38 1 c-32 1 -34 2 -13 8 l24 7 -22 15 c-20 14 -21 18 -7 29 23 19 18 28 -17 33 -32 4 -32 4 5 5 34 2 37 4 37 32 0 17 3 30 6 30 3 0 4 -19 3 -42z m141 17 c13 -14 21 -25 18 -25 -2 0 -15 11 -28 25 -13 14 -21 25 -18 25 2 0 15 -11 28 -25z m116 -61 l0 -79 -3 75 c-2 42 -9 78 -16 83 -8 6 -8 7 3 4 12 -3 15 -21 16 -83z m843 44 c-2 -24 -10 -49 -19 -55 -13 -11 -12 -16 13 -38 l28 -25 -38 1 c-32 1 -34 2 -13 8 l24 7 -22 15 c-20 14 -21 18 -7 29 23 19 18 28 -17 33 -32 4 -32 4 5 5 34 2 37 4 37 32 0 17 3 30 6 30 3 0 4 -19 3 -42z m141 17 c13 -14 21 -25 18 -25 -2 0 -15 11 -28 25 -13 14 -21 25 -18 25 2 0 15 -11 28 -25z m116 -61 l0 -79 -3 75 c-2 42 -9 78 -16 83 -8 6 -8 7 3 4 12 -3 15 -21 16 -83z m-1411 56 c10 -11 16 -20 13 -20 -3 0 -13 9 -23 20 -10 11 -16 20 -13 20 3 0 13 -9 23 -20z m125 17 c0 -2 -10 -12 -22 -23 l-23 -19 19 23 c18 21 26 27 26 19z m288 -4 c-14 -4 -18 -15 -18 -59 0 -55 -8 -66 -30 -39 -11 13 -10 14 4 9 13 -5 16 1 16 39 0 35 -4 47 -17 50 -10 3 0 5 22 5 22 0 32 -2 23 -5z m687 -13 c10 -11 16 -20 13 -20 -3 0 -13 9 -23 20 -10 11 -16 20 -13 20 3 0 13 -9 23 -20z m125 17 c0 -2 -10 -12 -22 -23 l-23 -19 19 23 c18 21 26 27 26 19z m272 -4 l-33 -4 26 -31 c31 -37 30 -72 -4 -76 -13 -2 -28 2 -35 8 -8 9 -4 10 16 5 43 -11 46 17 8 65 l-32 40 44 -2 c37 -1 38 -2 10 -5z m-1567 -38 c0 -19 -8 -20 -214 -23 -127 -1 -219 2 -224 7 -5 5 -7 17 -4 26 6 13 33 15 224 13 210 -3 218 -4 218 -23z m342 -62 c-2 -16 -4 -5 -4 22 0 28 2 40 4 28 2 -13 2 -35 0 -50z m1100 0 c-2 -16 -4 -5 -4 22 0 28 2 40 4 28 2 -13 2 -35 0 -50z m-1252 47 c-3 -5 -12 -10 -18 -10 -7 0 -6 4 3 10 19 12 23 12 15 0z m105 6 c0 -2 -7 -7 -16 -10 -8 -3 -12 -2 -9 4 6 10 25 14 25 6z m995 -6 c-3 -5 -12 -10 -18 -10 -7 0 -6 4 3 10 19 12 23 12 15 0z m105 6 c0 -2 -7 -7 -16 -10 -8 -3 -12 -2 -9 4 6 10 25 14 25 6z m-1090 -36 c0 -15 -6 -20 -27 -19 -24 2 -25 2 -5 6 12 2 22 11 22 19 0 8 2 14 5 14 3 0 5 -9 5 -20z m1100 0 c0 -15 -6 -20 -27 -19 -24 2 -25 2 -5 6 12 2 22 11 22 19 0 8 2 14 5 14 3 0 5 -9 5 -20z m-1255 -20 c3 -5 4 -10 1 -10 -3 0 -8 5 -11 10 -3 6 -4 10 -1 10 3 0 8 -4 11 -10z m1100 0 c3 -5 4 -10 1 -10 -3 0 -8 5 -11 10 -3 6 -4 10 -1 10 3 0 8 -4 11 -10z m-952 -27 c-13 -2 -33 -2 -45 0 -13 2 -3 4 22 4 25 0 35 -2 23 -4z m1100 0 c-13 -2 -33 -2 -45 0 -13 2 -3 4 22 4 25 0 35 -2 23 -4z m-1216 -19 c-3 -3 -12 -4 -19 -1 -8 3 -5 6 6 6 11 1 17 -2 13 -5z m1100 0 c-3 -3 -12 -4 -19 -1 -8 3 -5 6 6 6 11 1 17 -2 13 -5z m-3498 -276 c5 -13 16 -40 25 -60 l16 -38 -42 1 c-40 2 -41 2 -11 8 l32 6 -19 44 c-11 24 -20 47 -20 52 0 17 10 9 19 -13z m995 16 c18 -7 22 -39 6 -49 -8 -5 -8 -11 0 -20 15 -18 1 -45 -24 -45 -33 0 -47 19 -34 44 8 15 8 21 -1 24 -6 2 -11 12 -11 22 0 25 31 37 64 24z m970 -13 c22 -24 18 -80 -6 -95 -25 -15 -53 4 -53 35 0 19 6 25 28 27 38 5 32 35 -8 43 -29 6 -29 7 -4 8 14 0 34 -8 43 -18z m924 12 c-14 -4 -18 -15 -18 -59 0 -55 -8 -66 -30 -39 -11 13 -10 14 4 9 13 -5 16 1 16 39 0 35 -4 47 -17 50 -10 3 0 5 22 5 22 0 32 -2 23 -5z m101 -7 c17 -21 10 -87 -11 -100 -28 -17 -52 5 -56 48 -4 41 11 66 38 66 10 0 23 -6 29 -14z m859 7 c-14 -4 -18 -15 -18 -59 0 -55 -8 -66 -30 -39 -11 13 -10 14 4 9 13 -5 16 1 16 39 0 35 -4 47 -17 50 -10 3 0 5 22 5 22 0 32 -2 23 -5z m100 0 c-14 -4 -18 -15 -18 -59 0 -55 -8 -66 -30 -39 -11 13 -10 14 4 9 13 -5 16 1 16 39 0 35 -4 47 -17 50 -10 3 0 5 22 5 22 0 32 -2 23 -5z m870 0 c-14 -4 -18 -15 -18 -59 0 -55 -8 -66 -30 -39 -11 13 -10 14 4 9 13 -5 16 1 16 39 0 35 -4 47 -17 50 -10 3 0 5 22 5 22 0 32 -2 23 -5z m84 0 l-33 -4 26 -31 c31 -37 30 -72 -4 -76 -13 -2 -28 2 -35 8 -8 9 -5 10 15 5 39 -10 43 17 8 64 l-29 41 42 -2 c38 -1 39 -2 10 -5z m886 0 c-14 -4 -18 -15 -18 -59 0 -55 -8 -66 -30 -39 -11 13 -10 14 4 9 13 -5 16 1 16 39 0 35 -4 47 -17 50 -10 3 0 5 22 5 22 0 32 -2 23 -5z m106 -16 c9 -14 7 -21 -6 -31 -13 -9 -14 -16 -6 -24 17 -17 1 -42 -26 -42 -14 0 -27 4 -30 8 -2 4 8 8 22 7 35 0 36 27 2 36 l-25 6 25 4 c36 6 35 44 -2 44 -14 -1 -24 3 -21 8 9 14 55 3 67 -16z m-6565 -231 c17 -21 10 -87 -11 -100 -28 -17 -52 5 -56 48 -4 41 11 66 38 66 10 0 23 -6 29 -14z m2 -422 c16 -20 1 -48 -30 -52 -32 -5 -28 -40 7 -45 25 -4 25 -4 -5 -6 -30 -1 -33 2 -33 28 0 23 5 30 23 33 34 5 30 43 -5 43 -14 -1 -24 3 -22 7 9 14 51 9 65 -8z m-103 -401 c-14 -4 -18 -15 -18 -59 0 -55 -8 -66 -30 -39 -11 13 -10 14 4 9 13 -5 16 1 16 39 0 35 -4 47 -17 50 -10 3 0 5 22 5 22 0 32 -2 23 -5z m100 -5 c16 -16 16 -80 0 -96 -31 -31 -68 -1 -68 55 0 32 16 53 40 53 9 0 21 -5 28 -12z m-100 -405 c-14 -4 -18 -15 -18 -59 0 -55 -8 -66 -30 -39 -11 13 -10 14 4 9 13 -5 16 1 16 39 0 35 -4 47 -17 50 -10 3 0 5 22 5 22 0 32 -2 23 -5z m103 -9 c16 -20 1 -48 -30 -52 -32 -5 -28 -40 7 -45 25 -4 25 -4 -5 -6 -30 -1 -33 2 -33 28 0 23 5 30 23 33 34 5 30 43 -5 43 -14 -1 -24 3 -22 7 9 14 51 9 65 -8z m-119 -411 l-33 -4 26 -31 c31 -37 30 -72 -4 -76 -13 -2 -28 2 -35 8 -8 9 -5 10 15 5 39 -10 43 17 8 64 l-29 41 42 -2 c38 -1 39 -2 10 -5z m117 -7 c17 -21 10 -87 -11 -100 -28 -17 -52 5 -56 48 -4 41 11 66 38 66 10 0 23 -6 29 -14z m6498 -282 c3 -8 2 -19 -3 -24 -5 -5 -452 -45 -994 -90 -542 -44 -1196 -101 -1455 -125 l-470 -45 -483 45 -482 45 -483 0 c-478 0 -486 0 -977 41 -272 22 -499 45 -504 49 -16 16 3 40 31 40 15 0 242 -18 503 -40 469 -40 479 -40 970 -40 l495 -1 465 -43 465 -44 474 45 c512 48 2315 200 2394 202 35 1 49 -3 54 -15z m-6615 -121 l-33 -4 26 -31 c31 -37 30 -72 -4 -76 -13 -2 -28 2 -35 8 -8 9 -4 10 16 5 43 -11 46 17 8 65 l-32 40 44 -2 c37 -1 38 -2 10 -5z m119 -9 c16 -20 1 -48 -30 -52 -32 -5 -28 -40 7 -45 25 -4 25 -4 -5 -6 -30 -1 -33 2 -33 28 0 23 5 30 23 33 34 5 30 43 -5 43 -14 -1 -24 3 -22 7 9 14 51 9 65 -8z m-97 -427 c9 -14 7 -21 -6 -31 -13 -9 -14 -16 -6 -24 17 -17 1 -42 -26 -42 -14 0 -27 4 -30 8 -2 4 8 8 22 7 35 0 36 27 2 36 l-25 6 25 4 c36 6 35 44 -2 44 -14 -1 -24 3 -21 8 9 14 55 3 67 -16z m94 11 c16 -16 16 -80 0 -96 -31 -31 -68 -1 -68 55 0 32 16 53 40 53 9 0 21 -5 28 -12z m-94 -421 c9 -14 7 -21 -6 -31 -13 -9 -14 -16 -6 -24 17 -17 1 -42 -26 -42 -14 0 -27 4 -30 8 -2 4 8 8 22 7 35 0 36 27 2 36 l-25 6 25 4 c36 6 35 44 -2 44 -14 -1 -24 3 -21 8 9 14 55 3 67 -16z m97 7 c16 -20 1 -48 -30 -52 -32 -5 -28 -40 7 -45 25 -4 25 -4 -5 -6 -30 -1 -33 2 -33 28 0 23 5 30 23 33 34 5 30 43 -5 43 -14 -1 -24 3 -22 7 9 14 51 9 65 -8z m-99 -411 c7 -36 -4 -103 -17 -103 -9 0 -12 11 -8 40 5 36 3 40 -16 40 -21 0 -21 -1 -5 -25 9 -14 14 -28 11 -31 -5 -5 -37 47 -37 61 0 3 11 5 25 5 16 0 25 6 25 15 0 20 18 19 22 -2z m96 5 c16 -16 16 -80 0 -96 -31 -31 -68 -1 -68 55 0 32 16 53 40 53 9 0 21 -5 28 -12z"/>
</g>
<g id="layer104" fill="#dbdbdb" stroke="none">
<path d="M0 2260 l0 -2260 3760 0 3760 0 0 2260 0 2260 -3760 0 -3760 0 0 -2260z m3329 1968 c-2 -24 -10 -49 -19 -55 -13 -11 -12 -16 13 -38 l28 -25 -38 1 c-32 1 -34 2 -13 8 l24 7 -22 15 c-20 14 -21 18 -7 29 23 19 18 28 -17 33 -32 4 -32 4 5 5 34 2 37 4 37 32 0 17 3 30 6 30 3 0 4 -19 3 -42z m141 17 c13 -14 21 -25 18 -25 -2 0 -15 11 -28 25 -13 14 -21 25 -18 25 2 0 15 -11 28 -25z m116 -61 l0 -79 -3 75 c-2 42 -9 78 -16 83 -8 6 -8 7 3 4 12 -3 15 -21 16 -83z m843 44 c-2 -24 -10 -49 -19 -55 -13 -11 -12 -16 13 -38 l28 -25 -38 1 c-32 1 -34 2 -13 8 l24 7 -22 15 c-20 14 -21 18 -7 29 23 19 18 28 -17 33 -32 4 -32 4 5 5 34 2 37 4 37 32 0 17 3 30 6 30 3 0 4 -19 3 -42z m141 17 c13 -14 21 -25 18 -25 -2 0 -15 11 -28 25 -13 14 -21 25 -18 25 2 0 15 -11 28 -25z m116 -61 l0 -79 -3 75 c-2 42 -9 78 -16 83 -8 6 -8 7 3 4 12 -3 15 -21 16 -83z m-1411 56 c10 -11 16 -20 13 -20 -3 0 -13 9 -23 20 -10 11 -16 20 -13 20 3 0 13 -9 23 -20z m125 17 c0 -2 -10 -12 -22 -23 l-23 -19 19 23 c18 21 26 27 26 19z m288 -4 c-14 -4 -18 -15 -18 -59 0 -55 -8 -66 -30 -39 -11 13 -10 14 4 9 13 -5 16 1 16 39 0 35 -4 47 -17 50 -10 3 0 5 22 5 22 0 32 -2 23 -5z m687 -13 c10 -11 16 -20 13 -20 -3 0 -13 9 -23 20 -10 11 -16 20 -13 20 3 0 13 -9 23 -20z m125 17 c0 -2 -10 -12 -22 -23 l-23 -19 19 23 c18 21 26 27 26 19z m272 -4 l-33 -4 26 -31 c31 -37 30 -72 -4 -76 -13 -2 -28 2 -35 8 -8 9 -4 10 16 5 43 -11 46 17 8 65 l-32 40 44 -2 c37 -1 38 -2 10 -5z m-1567 -38 c0 -19 -8 -20 -214 -23 -127 -1 -219 2 -224 7 -5 5 -7 17 -4 26 6 13 33 15 224 13 210 -3 218 -4 218 -23z m1100 0 c0 -19 -8 -20 -214 -23 -127 -1 -219 2 -224 7 -5 5 -7 17 -4 26 6 13 33 15 224 13 210 -3 218 -4 218 -23z m-758 -62 c-2 -16 -4 -5 -4 22 0 28 2 40 4 28 2 -13 2 -35 0 -50z m1100 0 c-2 -16 -4 -5 -4 22 0 28 2 40 4 28 2 -13 2 -35 0 -50z m-1252 47 c-3 -5 -12 -10 -18 -10 -7 0 -6 4 3 10 19 12 23 12 15 0z m105 6 c0 -2 -7 -7 -16 -10 -8 -3 -12 -2 -9 4 6 10 25 14 25 6z m995 -6 c-3 -5 -12 -10 -18 -10 -7 0 -6 4 3 10 19 12 23 12 15 0z m105 6 c0 -2 -7 -7 -16 -10 -8 -3 -12 -2 -9 4 6 10 25 14 25 6z m-1090 -36 c0 -15 -6 -20 -27 -19 -24 2 -25 2 -5 6 12 2 22 11 22 19 0 8 2 14 5 14 3 0 5 -9 5 -20z m1100 0 c0 -15 -6 -20 -27 -19 -24 2 -25 2 -5 6 12 2 22 11 22 19 0 8 2 14 5 14 3 0 5 -9 5 -20z m-1255 -20 c3 -5 4 -10 1 -10 -3 0 -8 5 -11 10 -3 6 -4 10 -1 10 3 0 8 -4 11 -10z m1100 0 c3 -5 4 -10 1 -10 -3 0 -8 5 -11 10 -3 6 -4 10 -1 10 3 0 8 -4 11 -10z m-952 -27 c-13 -2 -33 -2 -45 0 -13 2 -3 4 22 4 25 0 35 -2 23 -4z m1100 0 c-13 -2 -33 -2 -45 0 -13 2 -3 4 22 4 25 0 35 -2 23 -4z m-1216 -19 c-3 -3 -12 -4 -19 -1 -8 3 -5 6 6 6 11 1 17 -2 13 -5z m1100 0 c-3 -3 -12 -4 -19 -1 -8 3 -5 6 6 6 11 1 17 -2 13 -5z m-3498 -276 c5 -13 16 -40 25 -60 l16 -38 -42 1 c-40 2 -41 2 -11 8 l32 6 -19 44 c-11 24 -20 47 -20 52 0 17 10 9 19 -13z m995 16 c18 -7 22 -39 6 -49 -8 -5 -8 -11 0 -20 15 -18 1 -45 -24 -45 -33 0 -47 19 -34 44 8 15 8 21 -1 24 -6 2 -11 12 -11 22 0 25 31 37 64 24z m970 -13 c22 -24 18 -80 -6 -95 -25 -15 -53 4 -53 35 0 19 6 25 28 27 38 5 32 35 -8 43 -29 6 -29 7 -4 8 14 0 34 -8 43 -18z m924 12 c-14 -4 -18 -15 -18 -59 0 -55 -8 -66 -30 -39 -11 13 -10 14 4 9 13 -5 16 1 16 39 0 35 -4 47 -17 50 -10 3 0 5 22 5 22 0 32 -2 23 -5z m101 -7 c17 -21 10 -87 -11 -100 -28 -17 -52 5 -56 48 -4 41 11 66 38 66 10 0 23 -6 29 -14z m859 7 c-14 -4 -18 -15 -18 -59 0 -55 -8 -66 -30 -39 -11 13 -10 14 4 9 13 -5 16 1 16 39 0 35 -4 47 -17 50 -10 3 0 5 22 5 22 0 32 -2 23 -5z m100 0 c-14 -4 -18 -15 -18 -59 0 -55 -8 -66 -30 -39 -11 13 -10 14 4 9 13 -5 16 1 16 39 0 35 -4 47 -17 50 -10 3 0 5 22 5 22 0 32 -2 23 -5z m870 0 c-14 -4 -18 -15 -18 -59 0 -55 -8 -66 -30 -39 -11 13 -10 14 4 9 13 -5 16 1 16 39 0 35 -4 47 -17 50 -10 3 0 5 22 5 22 0 32 -2 23 -5z m84 0 l-33 -4 26 -31 c31 -37 30 -72 -4 -76 -13 -2 -28 2 -35 8 -8 9 -5 10 15 5 39 -10 43 17 8 64 l-29 41 42 -2 c38 -1 39 -2 10 -5z m886 0 c-14 -4 -18 -15 -18 -59 0 -55 -8 -66 -30 -39 -11 13 -10 14 4 9 13 -5 16 1 16 39 0 35 -4 47 -17 50 -10 3 0 5 22 5 22 0 32 -2 23 -5z m106 -16 c9 -14 7 -21 -6 -31 -13 -9 -14 -16 -6 -24 17 -17 1 -42 -26 -42 -14 0 -27 4 -30 8 -2 4 8 8 22 7 35 0 36 27 2 36 l-25 6 25 4 c36 6 35 44 -2 44 -14 -1 -24 3 -21 8 9 14 55 3 67 -16z m-6565 -231 c17 -21 10 -87 -11 -100 -28 -17 -52 5 -56 48 -4 41 11 66 38 66 10 0 23 -6 29 -14z m2 -422 c16 -20 1 -48 -30 -52 -32 -5 -28 -40 7 -45 25 -4 25 -4 -5 -6 -30 -1 -33 2 -33 28 0 23 5 30 23 33 34 5 30 43 -5 43 -14 -1 -24 3 -22 7 9 14 51 9 65 -8z m-103 -401 c-14 -4 -18 -15 -18 -59 0 -55 -8 -66 -30 -39 -11 13 -10 14 4 9 13 -5 16 1 16 39 0 35 -4 47 -17 50 -10 3 0 5 22 5 22 0 32 -2 23 -5z m100 -5 c16 -16 16 -80 0 -96 -31 -31 -68 -1 -68 55 0 32 16 53 40 53 9 0 21 -5 28 -12z m-100 -405 c-14 -4 -18 -15 -18 -59 0 -55 -8 -66 -30 -39 -11 13 -10 14 4 9 13 -5 16 1 16 39 0 35 -4 47 -17 50 -10 3 0 5 22 5 22 0 32 -2 23 -5z m103 -9 c16 -20 1 -48 -30 -52 -32 -5 -28 -40 7 -45 25 -4 25 -4 -5 -6 -30 -1 -33 2 -33 28 0 23 5 30 23 33 34 5 30 43 -5 43 -14 -1 -24 3 -22 7 9 14 51 9 65 -8z m-119 -411 l-33 -4 26 -31 c31 -37 30 -72 -4 -76 -13 -2 -28 2 -35 8 -8 9 -5 10 15 5 39 -10 43 17 8 64 l-29 41 42 -2 c38 -1 39 -2 10 -5z m117 -7 c17 -21 10 -87 -11 -100 -28 -17 -52 5 -56 48 -4 41 11 66 38 66 10 0 23 -6 29 -14z m6498 -282 c3 -8 2 -19 -3 -24 -5 -5 -452 -45 -994 -90 -542 -44 -1196 -101 -1455 -125 l-470 -45 -483 45 -482 45 -483 0 c-478 0 -486 0 -977 41 -272 22 -499 45 -504 49 -16 16 3 40 31 40 15 0 242 -18 503 -40 469 -40 479 -40 970 -40 l495 -1 465 -43 465 -44 474 45 c512 48 2315 200 2394 202 35 1 49 -3 54 -15z m-6615 -121 l-33 -4 26 -31 c31 -37 30 -72 -4 -76 -13 -2 -28 2 -35 8 -8 9 -4 10 16 5 43 -11 46 17 8 65 l-32 40 44 -2 c37 -1 38 -2 10 -5z m119 -9 c16 -20 1 -48 -30 -52 -32 -5 -28 -40 7 -45 25 -4 25 -4 -5 -6 -30 -1 -33 2 -33 28 0 23 5 30 23 33 34 5 30 43 -5 43 -14 -1 -24 3 -22 7 9 14 51 9 65 -8z m-97 -427 c9 -14 7 -21 -6 -31 -13 -9 -14 -16 -6 -24 17 -17 1 -42 -26 -42 -14 0 -27 4 -30 8 -2 4 8 8 22 7 35 0 36 27 2 36 l-25 6 25 4 c36 6 35 44 -2 44 -14 -1 -24 3 -21 8 9 14 55 3 67 -16z m94 11 c16 -16 16 -80 0 -96 -31 -31 -68 -1 -68 55 0 32 16 53 40 53 9 0 21 -5 28 -12z m6497 -123 c0 -20 -9 -20 -560 -26 -535 -5 -578 -7 -978 -42 -400 -35 -440 -40 -904 -122 -267 -47 -542 -101 -612 -120 -69 -18 -286 -74 -482 -124 l-357 -91 -103 36 c-57 20 -268 93 -469 162 l-365 127 -510 5 c-502 5 -510 5 -510 25 0 20 8 20 500 23 l501 2 469 -161 c259 -88 479 -161 490 -161 11 0 144 32 295 71 151 39 363 94 470 121 118 31 385 84 675 136 469 83 490 86 925 123 l445 39 540 -2 c533 -1 540 -1 540 -21z m-6591 -298 c9 -14 7 -21 -6 -31 -13 -9 -14 -16 -6 -24 17 -17 1 -42 -26 -42 -14 0 -27 4 -30 8 -2 4 8 8 22 7 35 0 36 27 2 36 l-25 6 25 4 c36 6 35 44 -2 44 -14 -1 -24 3 -21 8 9 14 55 3 67 -16z m97 7 c16 -20 1 -48 -30 -52 -32 -5 -28 -40 7 -45 25 -4 25 -4 -5 -6 -30 -1 -33 2 -33 28 0 23 5 30 23 33 34 5 30 43 -5 43 -14 -1 -24 3 -22 7 9 14 51 9 65 -8z m-99 -411 c7 -36 -4 -103 -17 -103 -9 0 -12 11 -8 40 5 36 3 40 -16 40 -21 0 -21 -1 -5 -25 9 -14 14 -28 11 -31 -5 -5 -37 47 -37 61 0 3 11 5 25 5 16 0 25 6 25 15 0 20 18 19 22 -2z m96 5 c16 -16 16 -80 0 -96 -31 -31 -68 -1 -68 55 0 32 16 53 40 53 9 0 21 -5 28 -12z"/>
<path d="M1935 3830 c-4 -7 -3 -16 3 -22 14 -14 47 -6 47 12 0 18 -40 26 -50 10z"/>
<path d="M1947 3774 c-14 -15 -6 -34 14 -34 14 0 19 5 17 17 -3 18 -20 27 -31 17z"/>
<path d="M2906 3781 c-9 -14 4 -41 20 -41 15 0 37 34 27 44 -9 9 -41 7 -47 -3z"/>
<path d="M3924 3815 c-9 -38 3 -75 26 -75 23 0 35 37 26 75 -4 16 -13 25 -26 25 -13 0 -22 -9 -26 -25z"/>
<path d="M264 3575 c-9 -38 3 -75 26 -75 13 0 22 9 26 25 9 38 -3 75 -26 75 -13 0 -22 -9 -26 -25z"/>
<path d="M264 2745 c-9 -38 3 -75 26 -75 13 0 22 9 26 25 9 38 -3 75 -26 75 -13 0 -22 -9 -26 -25z"/>
<path d="M264 1915 c-9 -38 3 -75 26 -75 13 0 22 9 26 25 9 38 -3 75 -26 75 -13 0 -22 -9 -26 -25z"/>
<path d="M264 1085 c-9 -38 3 -75 26 -75 23 0 35 37 26 75 -4 16 -13 25 -26 25 -13 0 -22 -9 -26 -25z"/>
<path d="M264 265 c-9 -38 3 -75 26 -75 23 0 35 37 26 75 -9 34 -43 34 -52 0z"/>
</g>
<g id="layer105" fill="#fdfdfd" stroke="none">
<path d="M20 2260 l0 -2240 3740 0 3740 0 0 2240 0 2240 -3740 0 -3740 0 0 -2240z m3335 1946 c13 -3 32 -3 42 1 17 6 17 5 -1 -16 -11 -12 -22 -18 -25 -13 -3 5 -17 11 -30 15 -23 6 -23 5 5 -24 29 -31 24 -41 -8 -12 -22 20 -33 12 -19 -15 6 -11 25 -22 42 -26 52 -10 29 -15 -43 -9 -39 3 -65 10 -62 15 4 5 17 7 31 3 18 -4 24 -2 20 7 -2 7 -12 12 -21 11 -15 -1 -15 2 4 22 23 25 18 33 -17 30 -13 -1 -23 2 -23 7 0 4 16 8 35 8 32 0 35 2 37 33 l1 32 4 -32 c3 -23 10 -33 28 -37z m106 54 c19 -11 40 -46 53 -87 6 -19 4 -23 -13 -23 -12 0 -21 -5 -21 -11 0 -6 12 -9 28 -7 25 3 27 7 27 45 1 23 4 45 8 49 4 4 7 -18 7 -49 l0 -57 -62 1 c-35 1 -55 3 -45 6 21 5 22 22 2 50 -13 19 -13 21 10 21 20 0 23 -3 14 -14 -9 -11 -7 -15 5 -20 9 -4 19 -4 22 -2 9 10 -26 75 -48 91 -26 18 -17 23 13 7z m129 -70 c0 -44 -3 -80 -7 -80 -5 0 -7 33 -5 74 3 65 1 75 -15 79 -14 4 -14 5 5 6 21 1 22 -2 22 -79z m865 16 c13 -3 32 -3 42 1 17 6 17 5 -1 -16 -11 -12 -22 -18 -25 -13 -3 5 -17 11 -30 15 -23 6 -23 5 5 -24 29 -31 24 -41 -8 -12 -22 20 -33 12 -19 -15 6 -11 25 -22 42 -26 52 -10 29 -15 -43 -9 -39 3 -65 10 -62 15 4 5 17 7 31 3 18 -4 24 -2 20 7 -2 7 -12 12 -21 11 -15 -1 -15 2 4 22 23 25 18 33 -17 30 -13 -1 -23 2 -23 7 0 4 16 8 35 8 32 0 35 2 37 33 l1 32 4 -32 c3 -23 10 -33 28 -37z m106 54 c19 -11 40 -46 53 -87 6 -19 4 -23 -13 -23 -12 0 -21 -5 -21 -11 0 -6 12 -9 28 -7 25 3 27 7 27 45 1 23 4 45 8 49 4 4 7 -18 7 -49 l0 -57 -62 1 c-35 1 -55 3 -45 6 21 5 22 22 2 50 -13 19 -13 21 10 21 20 0 23 -3 14 -14 -9 -11 -7 -15 5 -20 9 -4 19 -4 22 -2 9 10 -26 75 -48 91 -26 18 -17 23 13 7z m129 -70 c0 -44 -3 -80 -7 -80 -5 0 -7 33 -5 74 3 65 1 75 -15 79 -14 4 -14 5 5 6 21 1 22 -2 22 -79z m-1405 50 c10 -11 15 -20 11 -20 -4 0 -19 9 -33 20 -17 13 -20 20 -11 20 8 0 23 -9 33 -20z m105 0 c-33 -26 -52 -25 -21 0 13 11 28 20 35 20 6 0 0 -9 -14 -20z m303 13 c-8 -3 -13 -25 -13 -59 0 -55 -9 -65 -40 -43 -11 8 -12 12 -2 16 20 8 15 81 -5 86 -10 3 2 5 27 5 25 0 39 -2 33 -5z m692 -13 c10 -11 15 -20 11 -20 -4 0 -19 9 -33 20 -17 13 -20 20 -11 20 8 0 23 -9 33 -20z m105 0 c-33 -26 -52 -25 -21 0 13 11 28 20 35 20 6 0 0 -9 -14 -20z m288 13 l-28 -4 21 -28 c27 -37 22 -75 -10 -79 -13 -2 -28 1 -34 7 -9 9 -5 11 13 9 35 -4 38 31 5 62 -35 33 -32 40 18 39 29 -2 34 -3 15 -6z m-1573 -38 c0 -19 -8 -20 -214 -23 -127 -1 -219 2 -224 7 -5 5 -7 17 -4 26 6 13 33 15 224 13 210 -3 218 -4 218 -23z m1100 0 c0 -19 -8 -20 -214 -23 -127 -1 -219 2 -224 7 -5 5 -7 17 -4 26 6 13 33 15 224 13 210 -3 218 -4 218 -23z m-3296 -421 c11 -31 21 -58 21 -60 0 -2 -19 -3 -42 -2 -37 1 -39 2 -11 5 33 4 33 4 18 34 -30 56 -36 79 -21 79 7 0 23 -25 35 -56z m991 41 c10 -13 10 -19 -3 -33 -12 -14 -14 -21 -6 -29 19 -19 2 -43 -31 -43 -34 0 -49 22 -31 44 8 10 8 16 -4 26 -11 9 -12 17 -4 31 12 23 61 26 79 4z m959 1 c7 -8 11 -34 9 -58 -3 -42 -4 -43 -38 -43 -32 0 -35 2 -35 30 0 25 4 30 28 33 15 2 27 7 27 11 0 12 -22 28 -45 34 -14 3 -10 5 11 6 17 0 37 -5 43 -13z m924 7 c-8 -3 -13 -25 -13 -59 0 -58 -10 -66 -46 -39 -17 13 -17 14 -1 15 13 0 17 9 17 39 0 22 -5 42 -12 44 -7 3 5 5 27 5 22 0 34 -2 28 -5z m111 -25 c15 -41 -3 -82 -36 -86 -35 -4 -62 34 -52 74 10 43 13 45 47 42 24 -2 34 -10 41 -30z m849 25 c-8 -3 -13 -25 -13 -59 0 -58 -10 -66 -46 -39 -17 13 -17 14 -1 15 13 0 17 9 17 39 0 22 -5 42 -12 44 -7 3 5 5 27 5 22 0 34 -2 28 -5z m100 0 c-8 -3 -13 -25 -13 -59 0 -58 -10 -66 -46 -39 -17 13 -17 14 -1 15 13 0 17 9 17 39 0 22 -5 42 -12 44 -7 3 5 5 27 5 22 0 34 -2 28 -5z m870 0 c-8 -3 -13 -25 -13 -59 0 -58 -10 -66 -46 -39 -17 13 -17 14 -1 15 13 0 17 9 17 39 0 22 -5 42 -12 44 -7 3 5 5 27 5 22 0 34 -2 28 -5z m85 0 l-28 -4 21 -28 c27 -37 22 -75 -10 -79 -13 -2 -28 1 -34 7 -9 9 -5 11 13 9 35 -4 38 31 5 62 -35 33 -32 40 18 39 29 -2 34 -3 15 -6z m885 0 c-8 -3 -13 -25 -13 -59 0 -58 -10 -66 -46 -39 -17 13 -17 14 -1 15 13 0 17 9 17 39 0 22 -5 42 -12 44 -7 3 5 5 27 5 22 0 34 -2 28 -5z m91 1 c18 -7 22 -54 5 -54 -8 0 -8 -5 1 -15 10 -12 10 -18 0 -30 -14 -17 -56 -20 -65 -5 -4 7 2 9 19 4 20 -5 26 -2 26 11 0 9 -10 20 -22 23 -23 6 -23 6 2 12 37 9 35 46 -2 43 -16 -1 -28 2 -28 8 0 10 40 12 64 3z m-6540 -266 c15 -41 -3 -82 -36 -86 -45 -5 -72 61 -43 108 4 6 21 10 38 8 24 -2 34 -10 41 -30z m6946 -28 c0 -7 -1135 -10 -3385 -10 -2250 0 -3385 3 -3385 10 0 7 1135 10 3385 10 2250 0 3385 -3 3385 -10z m-6960 -375 c17 -21 8 -50 -18 -53 -30 -4 -30 -39 1 -45 13 -3 8 -5 -15 -6 -36 -1 -38 1 -38 28 0 25 4 30 28 33 19 2 27 9 27 23 0 16 -6 20 -27 18 -16 -1 -28 2 -28 8 0 15 56 10 70 -6z m6960 -35 c0 -7 -1135 -10 -3385 -10 -2250 0 -3385 3 -3385 10 0 7 1135 10 3385 10 2250 0 3385 -3 3385 -10z m-7057 -367 c-8 -3 -13 -25 -13 -59 0 -55 -9 -65 -40 -43 -11 8 -12 12 -2 16 20 8 15 81 -5 86 -10 3 2 5 27 5 25 0 39 -2 33 -5z m111 -25 c14 -40 -3 -82 -34 -86 -38 -4 -53 12 -53 56 0 53 9 64 46 60 24 -2 34 -10 41 -30z m6946 -28 c0 -7 -1135 -10 -3385 -10 -2250 0 -3385 3 -3385 10 0 7 1135 10 3385 10 2250 0 3385 -3 3385 -10z m-7057 -357 c-8 -3 -13 -25 -13 -59 0 -58 -10 -66 -46 -39 -17 13 -17 14 -1 15 13 0 17 9 17 39 0 22 -5 42 -12 44 -7 3 5 5 27 5 22 0 34 -2 28 -5z m97 -8 c17 -21 8 -50 -18 -53 -30 -4 -30 -39 1 -45 13 -3 8 -5 -15 -6 -36 -1 -38 1 -38 28 0 25 4 30 28 33 19 2 27 9 27 23 0 16 -6 20 -27 18 -16 -1 -28 2 -28 8 0 15 56 10 70 -6z m6960 -45 c0 -7 -1135 -10 -3385 -10 -2250 0 -3385 3 -3385 10 0 7 1135 10 3385 10 2250 0 3385 -3 3385 -10z m-7072 -367 l-28 -4 21 -28 c27 -37 22 -75 -10 -79 -13 -2 -28 1 -34 7 -9 9 -5 11 13 9 35 -4 38 31 5 62 -35 33 -32 40 18 39 29 -2 34 -3 15 -6z m126 -25 c14 -41 -3 -82 -35 -86 -33 -4 -53 21 -52 63 1 47 10 57 46 53 24 -2 34 -10 41 -30z m6946 -18 c0 -7 -1135 -10 -3385 -10 -2250 0 -3385 3 -3385 10 0 7 1135 10 3385 10 2250 0 3385 -3 3385 -10z m-463 -246 c3 -8 2 -19 -3 -24 -5 -5 -286 -31 -624 -59 -1054 -87 -1063 -78 83 -80 640 -1 1007 -5 1007 -11 0 -6 -445 -11 -1222 -13 -1174 -3 -1231 -4 -1423 -24 -539 -59 -736 -73 -845 -63 -58 5 -274 25 -480 44 l-375 35 -1212 7 c-667 4 -1213 11 -1213 16 0 4 233 9 518 9 l517 2 -255 22 c-140 13 -270 24 -288 24 -35 1 -53 24 -34 43 8 8 135 0 459 -28 430 -37 472 -39 1033 -46 322 -5 936 -11 1365 -14 727 -5 795 -4 1005 15 124 11 556 48 960 81 404 33 778 64 830 69 155 14 190 13 197 -5z m-6609 -121 l-28 -4 21 -28 c27 -37 22 -75 -10 -79 -13 -2 -28 1 -34 7 -9 9 -5 11 13 9 35 -4 38 31 5 62 -35 33 -32 40 18 39 29 -2 34 -3 15 -6z m112 -8 c17 -21 8 -50 -18 -53 -30 -4 -30 -39 1 -45 13 -3 8 -5 -15 -6 -36 -1 -38 1 -38 28 0 25 4 30 28 33 19 2 27 9 27 23 0 16 -6 20 -27 18 -16 -1 -28 2 -28 8 0 15 56 10 70 -6z m-106 -411 c18 -7 22 -54 5 -54 -8 0 -8 -5 1 -15 10 -12 10 -18 0 -30 -14 -17 -56 -20 -65 -5 -4 7 2 9 19 4 20 -5 26 -2 26 11 0 9 -10 20 -22 23 -23 6 -23 6 2 12 37 9 35 46 -2 43 -16 -1 -28 2 -28 8 0 10 40 12 64 3z m120 -26 c14 -40 -3 -82 -34 -86 -38 -4 -53 12 -53 56 0 53 9 64 46 60 24 -2 34 -10 41 -30z m6946 -18 c0 -7 -1135 -10 -3385 -10 -2250 0 -3385 3 -3385 10 0 7 1135 10 3385 10 2250 0 3385 -3 3385 -10z m-465 -85 c0 -20 -9 -20 -560 -26 -535 -5 -578 -7 -978 -42 -400 -35 -440 -40 -902 -122 -266 -47 -523 -96 -572 -109 l-88 -25 1783 0 c1181 -1 1782 -4 1782 -11 0 -7 -616 -10 -1827 -10 l-1828 0 -195 -50 c-107 -28 -266 -68 -352 -90 l-158 -40 -87 31 c-49 17 -167 57 -263 90 l-174 59 -943 0 c-619 0 -943 3 -943 10 0 6 314 11 907 12 l908 3 -175 60 -175 60 -505 5 c-497 5 -505 5 -505 25 0 20 8 20 501 23 l501 2 263 -90 263 -90 516 2 516 3 180 47 c152 40 262 65 370 83 11 2 112 20 225 40 113 20 219 39 235 41 17 3 53 9 81 15 28 5 61 11 75 14 164 26 227 35 299 40 166 11 695 56 705 59 6 2 260 3 565 3 548 -2 555 -2 555 -22z m-6601 -281 c18 -7 22 -54 5 -54 -8 0 -8 -5 1 -15 10 -12 10 -18 0 -30 -14 -17 -56 -20 -65 -5 -4 7 2 9 19 4 20 -5 26 -2 26 11 0 9 -10 20 -22 23 -23 6 -23 6 2 12 37 9 35 46 -2 43 -16 -1 -28 2 -28 8 0 10 40 12 64 3z m106 -9 c17 -21 8 -50 -18 -53 -30 -4 -30 -39 1 -45 13 -3 8 -5 -15 -6 -36 -1 -38 1 -38 28 0 25 4 30 28 33 19 2 27 9 27 23 0 16 -6 20 -27 18 -16 -1 -28 2 -28 8 0 15 56 10 70 -6z m-100 -410 c0 -8 6 -15 13 -16 10 0 10 -2 0 -6 -8 -2 -13 -22 -13 -45 0 -52 -21 -48 -56 10 l-25 42 30 0 c21 0 31 5 31 15 0 8 5 15 10 15 6 0 10 -7 10 -15z m114 -17 c14 -40 -3 -82 -34 -86 -38 -4 -53 12 -53 56 0 53 9 64 46 60 24 -2 34 -10 41 -30z m6946 -28 c0 -7 -1135 -10 -3385 -10 -2250 0 -3385 3 -3385 10 0 7 1135 10 3385 10 2250 0 3385 -3 3385 -10z"/>
<path d="M1944 3829 c-8 -14 11 -33 25 -25 6 4 11 14 11 22 0 16 -26 19 -36 3z"/>
<path d="M1944 3769 c-10 -17 13 -36 27 -22 12 12 4 33 -11 33 -5 0 -12 -5 -16 -11z"/>
<path d="M2913 3774 c-7 -18 11 -39 26 -30 17 11 13 46 -4 46 -9 0 -18 -7 -22 -16z"/>
<path d="M3934 3827 c-10 -28 0 -82 16 -82 11 0 15 12 15 44 0 44 -19 68 -31 38z"/>
<path d="M274 3587 c-10 -28 0 -82 16 -82 11 0 15 12 15 44 0 44 -19 68 -31 38z"/>
<path d="M274 2757 c-10 -28 0 -82 16 -82 11 0 15 12 15 44 0 44 -19 68 -31 38z"/>
<path d="M274 1927 c-10 -28 0 -82 16 -82 11 0 15 12 15 44 0 44 -19 68 -31 38z"/>
<path d="M3660 1445 l236 -22 229 22 230 23 -465 0 -465 0 235 -23z"/>
<path d="M274 1097 c-10 -28 0 -82 16 -82 11 0 15 12 15 44 0 44 -19 68 -31 38z"/>
<path d="M2575 634 c6 -2 86 -31 179 -63 l170 -58 170 44 c94 25 203 53 241 63 l70 18 -420 0 c-231 0 -415 -2 -410 -4z"/>
<path d="M170 253 c0 -5 7 -17 15 -27 14 -19 15 -19 15 7 0 17 -5 27 -15 27 -8 0 -15 -3 -15 -7z"/>
<path d="M274 277 c-10 -28 0 -82 16 -82 11 0 15 12 15 44 0 44 -19 68 -31 38z"/>
</g>


</svg>